<?xml version="1.0" encoding="utf-8"?>
<!-- Generator: Adobe Illustrator 19.0.0, SVG Export Plug-In . SVG Version: 6.00 Build 0)  -->
<!DOCTYPE svg PUBLIC "-//W3C//DTD SVG 1.1//EN" "http://www.w3.org/Graphics/SVG/1.1/DTD/svg11.dtd">
<svg version="1.1" xmlns="http://www.w3.org/2000/svg" xmlns:xlink="http://www.w3.org/1999/xlink" x="0px" y="0px"
	 viewBox="0 0 320 320" enable-background="new 0 0 320 320" xml:space="preserve">
<g id="buns_1_">
	<path id="buns" fill="#DCAE6D" d="M180.6,23h-36.6C93.8,23,25.2,64.1,25.2,114.4v9.1c0,5.5,3.7,9.1,9.1,9.1h255.9
		c5.5,0,9.1-3.7,9.1-9.1v-9.1C299.4,64.1,230.9,23,180.6,23z M25.2,278.9c0,10.1,8.2,18.3,18.3,18.3h237.6
		c10.1,0,18.3-8.2,18.3-18.3v-18.3H25.2V278.9z"/>
</g>
<g id="burger_1_">
	<path id="burger" fill="#BA6F37" d="M34.4,224.1h255.9c10.1,0,18.3,8.2,18.3,18.3c0,10.1-8.2,18.3-18.3,18.3H34.4
		c-10.1,0-18.3-8.2-18.3-18.3C16.1,232.3,24.3,224.1,34.4,224.1z"/>
</g>
<g id="cheese_1_">
	<path id="cheese" fill="#EDC55D" d="M34.4,187.5h255.9v36.6H272l-27.4,27.4l-27.4-27.4H34.4C34.4,224.1,34.4,187.5,34.4,187.5z"/>
</g>
<g id="lettuce_1_">
	<path id="lettuce" fill="#3CB19C" d="M290.3,160.1l-255.9-0.9v0.9c-10.1,1.8-18.3,11-18.3,21.9c0,12.8,10.1,22.8,22.8,22.8
		c11,0,20.1-8.2,21.9-18.3h37.5c0,10.1,10.1,18.3,22.8,18.3s22.8-8.2,22.8-18.3h36.6c0,10.1,10.1,18.3,22.8,18.3
		c12.8,0,22.8-8.2,22.8-18.3h37.5c1.8,10.1,11,18.3,21.9,18.3c12.8,0,22.8-10.1,22.8-22.8C308.6,172,300.4,162.8,290.3,160.1z"/>
</g>
<g id="tomato_1_">
	<path id="tomato" fill="#BE3A2C" d="M34.4,132.7h255.9v27.4H34.4V132.7z"/>
</g>
<g id="bun-shadow_1_">
	<path id="bun-shadow" fill="#C49B62" d="M34.4,132.7h18.3c-5.5,0-9.1-3.7-9.1-9.1v-9.1c0-50.3,68.5-91.4,118.8-91.4h-18.3
		C93.8,23,25.2,64.1,25.2,114.4v9.1C25.2,128.1,28.9,132.7,34.4,132.7z M43.5,278.9v-18.3H25.2v18.3c0,10.1,8.2,18.3,18.3,18.3h18.3
		C51.7,297.2,43.5,289,43.5,278.9z"/>
</g>
<g id="burger-shadow_1_">
	<path id="burger-shadow" fill="#A76433" d="M34.4,242.3c0-10.1,8.2-18.3,18.3-18.3H34.4c-10.1,0-18.3,8.2-18.3,18.3
		c0,10.1,8.2,18.3,18.3,18.3h18.3C42.6,260.6,34.4,252.4,34.4,242.3z"/>
</g>
<g id="lettuce-shadow_1_">
	<path id="lettuce-shadow" fill="#37A08D" d="M34.4,182.9c0-11,8.2-20.1,18.3-21.9v-0.9H34.4v0.9c-10.1,1.8-18.3,11-18.3,21.9
		c0,12.8,10.1,22.8,22.8,22.8c3.7,0,6.4-0.9,9.1-1.8C39.9,200.3,34.4,192.1,34.4,182.9z M116.6,187.5H98.4
		c0,10.1,10.1,18.3,22.8,18.3c3.7,0,6.4-0.9,9.1-1.8C122.1,201.2,116.6,194.8,116.6,187.5z M198.9,187.5h-18.3
		c0,10.1,10.1,18.3,22.8,18.3c3.7,0,6.4-0.9,9.1-1.8C204.4,201.2,198.9,194.8,198.9,187.5z M281.2,187.5h-18.3
		c1.8,10.1,11,18.3,21.9,18.3c3.7,0,6.4-0.9,9.1-1.8C287.6,200.3,283,194.8,281.2,187.5z"/>
</g>
</svg>
